<svg width="46" height="49" viewBox="0 0 46 49" fill="none" xmlns="http://www.w3.org/2000/svg">
<path fill-rule="evenodd" clip-rule="evenodd" d="M36.5 7C33.4624 7 31 9.46243 31 12.5V31.7531C28.5792 33.4749 27 36.303 27 39.5C27 44.7467 31.2533 49 36.5 49C41.7467 49 46 44.7467 46 39.5C46 36.303 44.4208 33.4749 42 31.7531V12.5C42 9.46243 39.5376 7 36.5 7Z" fill="#D9D9D9"/>
<mask id="path-2-inside-1_228_1122" fill="white">
<path fill-rule="evenodd" clip-rule="evenodd" d="M36.5 9C34.567 9 33 10.567 33 12.5V32.865C30.6211 34.1225 29 36.622 29 39.5C29 43.6421 32.3579 47 36.5 47C40.6421 47 44 43.6421 44 39.5C44 36.622 42.3789 34.1225 40 32.865V12.5C40 10.567 38.433 9 36.5 9Z"/>
</mask>
<path d="M33 32.865L33.4673 33.7491L34 33.4676V32.865H33ZM40 32.865H39V33.4676L39.5327 33.7491L40 32.865ZM34 12.5C34 11.1193 35.1193 10 36.5 10V8C34.0147 8 32 10.0147 32 12.5H34ZM34 32.865V12.5H32V32.865H34ZM30 39.5C30 37.0071 31.4031 34.8403 33.4673 33.7491L32.5327 31.981C29.8391 33.4048 28 36.2368 28 39.5H30ZM36.5 46C32.9101 46 30 43.0899 30 39.5H28C28 44.1944 31.8056 48 36.5 48V46ZM43 39.5C43 43.0899 40.0899 46 36.5 46V48C41.1944 48 45 44.1944 45 39.5H43ZM39.5327 33.7491C41.5969 34.8403 43 37.0071 43 39.5H45C45 36.2368 43.1609 33.4048 40.4673 31.981L39.5327 33.7491ZM39 12.5V32.865H41V12.5H39ZM36.5 10C37.8807 10 39 11.1193 39 12.5H41C41 10.0147 38.9853 8 36.5 8V10Z" fill="#E6E6E6" mask="url(#path-2-inside-1_228_1122)"/>
<path d="M43 39.5C43 43.0899 40.0899 46 36.5 46C32.9101 46 30 43.0899 30 39.5C30 35.9101 32.9101 33 36.5 33C40.0899 33 43 35.9101 43 39.5Z" fill="#FFDB9D"/>
<rect x="34" y="20" width="5" height="17" fill="#FFDB9D"/>
<line x1="37" y1="17.6" x2="39" y2="17.6" stroke="#B3B3B3" stroke-width="0.8"/>
<line x1="37" y1="20.6" x2="39" y2="20.6" stroke="#B3B3B3" stroke-width="0.8"/>
<line x1="37" y1="23.6" x2="39" y2="23.6" stroke="#B3B3B3" stroke-width="0.8"/>
<line x1="37" y1="26.6" x2="39" y2="26.6" stroke="#B3B3B3" stroke-width="0.8"/>
<line x1="37" y1="29.6" x2="39" y2="29.6" stroke="#B3B3B3" stroke-width="0.8"/>
<circle cx="18.5" cy="18.5" r="10.5" fill="#FFDB9D"/>
<path d="M11.6973 1.52648L17.1889 5.7504L10.7851 8.39437L11.6973 1.52648Z" fill="#FFDB9D"/>
<path d="M1.9092 10.2226L8.74942 9.12196L6.2825 15.5961L1.9092 10.2226Z" fill="#FFDB9D"/>
<path d="M0.708295 21.3532L6.00011 16.8815L7.22687 23.7002L0.708295 21.3532Z" fill="#FFDB9D"/>
<path d="M5.94842 31.5999L7.44965 24.8363L12.5565 29.5182L5.94842 31.5999Z" fill="#FFDB9D"/>
<path d="M16.989 36.2747L13.9794 30.0343L20.8885 30.5481L16.989 36.2747Z" fill="#FFDB9D"/>
<path d="M25.6781 1.48126L26.6741 8.33751L20.2384 5.77189L25.6781 1.48126Z" fill="#FFDB9D"/>
</svg>
