<svg width="60" height="60" viewBox="0 0 60 60" fill="none" xmlns="http://www.w3.org/2000/svg">
<rect width="60" height="60" fill="#8ECFD2"/>
<path fill-rule="evenodd" clip-rule="evenodd" d="M37.7388 37.7388C38.5514 36.9263 39.8688 36.9263 40.6813 37.7388L50.3911 47.4486C51.2036 48.2611 51.2036 49.5785 50.3911 50.3911C49.5785 51.2036 48.2611 51.2036 47.4486 50.3911L37.7388 40.6813C36.9263 39.8688 36.9263 38.5514 37.7388 37.7388Z" fill="#CDCDCD"/>
<path fill-rule="evenodd" clip-rule="evenodd" d="M8 26.726C8 16.3839 16.3839 8 26.726 8C37.0681 8 45.452 16.3839 45.452 26.726C45.452 31.8875 43.3612 36.5647 39.9849 39.9497C36.5971 43.3465 31.9053 45.452 26.726 45.452C16.3839 45.452 8 37.0681 8 26.726ZM26.726 12.1613C18.6822 12.1613 12.1613 18.6822 12.1613 26.726C12.1613 34.7698 18.6822 41.2907 26.726 41.2907C30.7554 41.2907 34.3996 39.6571 37.0385 37.0111L37.0386 37.011C39.6685 34.3743 41.2907 30.7417 41.2907 26.726C41.2907 18.6822 34.7698 12.1613 26.726 12.1613Z" fill="#CDCDCD"/>
<path fill-rule="evenodd" clip-rule="evenodd" d="M37.7388 37.7388C38.5514 36.9263 39.8688 36.9263 40.6813 37.7388L50.3911 47.4486C51.2036 48.2611 51.2036 49.5785 50.3911 50.3911C49.5785 51.2036 48.2611 51.2036 47.4486 50.3911L37.7388 40.6813C36.9263 39.8688 36.9263 38.5514 37.7388 37.7388Z" fill="#7C7C7C"/>
<path fill-rule="evenodd" clip-rule="evenodd" d="M8 26.726C8 16.3839 16.3839 8 26.726 8C37.0681 8 45.452 16.3839 45.452 26.726C45.452 31.8875 43.3612 36.5647 39.9849 39.9497C36.5971 43.3465 31.9053 45.452 26.726 45.452C16.3839 45.452 8 37.0681 8 26.726ZM26.726 12.1613C18.6822 12.1613 12.1613 18.6822 12.1613 26.726C12.1613 34.7698 18.6822 41.2907 26.726 41.2907C30.7554 41.2907 34.3996 39.6571 37.0385 37.0111L37.0386 37.011C39.6685 34.3743 41.2907 30.7417 41.2907 26.726C41.2907 18.6822 34.7698 12.1613 26.726 12.1613Z" fill="#7C7C7C"/>
</svg>
