<svg width="30" height="30" viewBox="0 0 30 30" fill="none" xmlns="http://www.w3.org/2000/svg">
<path d="M4.70218 3C8.96724 3 13.2323 3 17.4974 3C18.2355 3.14061 18.7335 3.63859 19.2256 4.14829C19.6533 4.59354 20.0869 5.02708 20.5321 5.45475C21.0594 5.95859 21.3054 6.56203 21.2996 7.29435C21.2879 8.98749 21.2937 10.6806 21.2937 12.3738C21.2937 12.4558 21.2937 12.5378 21.2937 12.6198C21.3172 12.6315 21.3406 12.6491 21.3582 12.6608C21.3992 12.5964 21.4343 12.5261 21.4871 12.4734C22.1081 11.8465 22.7291 11.2196 23.356 10.5986C24.3461 9.63194 25.758 9.73153 26.6016 10.8154C26.8125 11.0849 26.877 11.413 27 11.7176C27 11.9519 27 12.1863 27 12.4206C26.9648 12.4323 26.959 12.4558 26.9473 12.4909C26.8301 13.0065 26.5255 13.399 26.1564 13.7623C24.5921 15.3206 23.0337 16.8907 21.4636 18.4491C21.3347 18.578 21.2761 18.7069 21.2761 18.8944C21.282 20.8453 21.282 22.8021 21.282 24.753C21.282 25.1162 21.2351 25.4677 21.0711 25.7958C20.6493 26.6219 19.958 27.0027 19.0382 27.0027C15.6167 27.0027 12.1953 27.0027 8.7739 27.0027C7.57875 27.0027 6.38359 27.0085 5.18844 27.0027C4.01672 26.9968 3.17308 26.2528 3.02662 25.0928C2.97975 24.712 3.00904 24.3253 3.00904 23.9445C3.00904 17.7168 3.0149 11.495 3.00318 5.26728C3.00318 4.22445 3.60662 3.3398 4.56743 3.08788C4.62016 3.0703 4.6846 3.0703 4.70218 3ZM19.8877 20.0427C19.7295 20.2067 19.583 20.2829 19.419 20.3356C18.505 20.6402 17.5852 20.939 16.6713 21.2495C16.3549 21.355 16.0679 21.355 15.8277 21.1089C15.5933 20.8687 15.5933 20.5875 15.6988 20.2829C16.0034 19.3924 16.3022 18.496 16.5951 17.5996C16.6713 17.3594 16.7943 17.1661 16.9701 16.9962C17.9016 16.0705 18.8273 15.139 19.7588 14.2134C19.8525 14.1196 19.8994 14.0317 19.8994 13.8911C19.8935 12.2039 19.8935 10.5166 19.8994 8.82931C19.8994 8.65355 19.8584 8.61254 19.6826 8.61254C18.6222 8.62426 17.5559 8.6184 16.4955 8.6184C15.9448 8.6184 15.6753 8.3489 15.6753 7.79819C15.6753 6.74365 15.6695 5.6891 15.6812 4.63455C15.6812 4.44122 15.6402 4.39435 15.441 4.39435C12.0606 4.40021 8.68016 4.40021 5.29389 4.40021C4.67874 4.40021 4.42682 4.65213 4.42682 5.26142C4.42682 11.7469 4.42682 18.2265 4.42682 24.712C4.42682 25.3388 4.67874 25.5849 5.30561 25.5849C9.87532 25.5849 14.445 25.5849 19.0147 25.5849C19.0792 25.5849 19.1378 25.5849 19.2022 25.5849C19.5889 25.5673 19.8877 25.2803 19.8877 24.8936C19.8877 23.3001 19.8877 21.7007 19.8877 20.0427ZM22.6822 13.276C22.6471 13.3053 22.6119 13.3346 22.5826 13.3697C21.5222 14.4301 20.4677 15.4905 19.4073 16.5509C19.3311 16.6271 19.3194 16.6681 19.4014 16.756C19.6709 17.0138 19.9404 17.2774 20.1982 17.5528C20.2919 17.6524 20.3388 17.6231 20.4208 17.541C21.4695 16.4865 22.524 15.432 23.5844 14.3774C23.6723 14.2895 23.6665 14.2427 23.5844 14.1606C23.3149 13.9029 23.0513 13.6334 22.7877 13.3697C22.7525 13.3346 22.7174 13.3111 22.6822 13.276ZM18.464 7.21819C18.8214 7.21819 19.1788 7.22405 19.542 7.21819C19.6533 7.21819 19.8291 7.27678 19.8701 7.1889C19.9345 7.05415 19.8701 6.88425 19.7881 6.74365C19.7529 6.68506 19.706 6.62647 19.6592 6.57961C19.0147 5.93516 18.3703 5.29071 17.7258 4.64627C17.5969 4.51738 17.4388 4.43536 17.2572 4.41192C17.1341 4.40021 17.0755 4.41192 17.0814 4.56425C17.0873 5.39617 17.0873 6.23395 17.0814 7.06587C17.0814 7.21233 17.1341 7.22405 17.2572 7.22405C17.6555 7.21233 18.0598 7.21819 18.464 7.21819ZM25.6057 12.034C25.5939 11.7703 25.4709 11.5477 25.2073 11.4188C24.9319 11.2841 24.6683 11.3192 24.4457 11.5184C24.2054 11.7293 23.9945 11.9695 23.7602 12.1863C23.6665 12.2742 23.725 12.3152 23.7778 12.3679C24.0414 12.6315 24.3109 12.8952 24.5745 13.1647C24.6448 13.2408 24.6917 13.2584 24.7796 13.1705C24.9788 12.9538 25.1956 12.7487 25.4065 12.5378C25.5295 12.4031 25.5939 12.239 25.6057 12.034ZM17.4329 19.5154C17.9426 19.3455 18.4113 19.199 18.88 19.0291C19.044 18.9705 19.1319 18.8006 19.2608 18.6893C19.3252 18.6307 19.2666 18.5956 19.2256 18.5546C18.9503 18.2792 18.6749 18.0039 18.3996 17.7285C18.3644 17.6934 18.3234 17.6289 18.2648 17.6934C18.1477 17.8223 17.9836 17.9101 17.925 18.0742C17.7551 18.537 17.6028 19.0057 17.4329 19.5154Z" fill="#8ECFD2"/>
<path d="M10.4727 9.37412C12.0955 9.37412 13.7183 9.37412 15.3411 9.37412C15.8919 9.37412 16.2434 9.86625 16.0383 10.3408C15.9094 10.6337 15.6692 10.7743 15.3529 10.7743C14.8666 10.7743 14.3862 10.7743 13.8999 10.7743C11.1757 10.7743 8.45143 10.7743 5.72719 10.7743C5.61587 10.7743 5.50456 10.7802 5.3991 10.7568C5.04173 10.6806 4.80739 10.3467 4.8484 9.99514C4.88941 9.64362 5.17648 9.37412 5.55143 9.37412C6.20173 9.36827 6.84618 9.37412 7.49648 9.37412C8.49244 9.37412 9.48255 9.37412 10.4727 9.37412Z" fill="#8ECFD2"/>
<path d="M9.04352 13.5923C7.89523 13.5923 6.74695 13.5923 5.60452 13.5923C5.2823 13.5923 5.04209 13.4576 4.9132 13.1646C4.79603 12.901 4.8429 12.6432 5.03624 12.4265C5.19442 12.2448 5.40533 12.1863 5.64553 12.1863C7.16876 12.1863 8.692 12.1863 10.2094 12.1863C10.9886 12.1863 11.7678 12.1804 12.5528 12.1863C13.0977 12.1921 13.4433 12.696 13.2324 13.1705C13.0918 13.4693 12.8399 13.5982 12.5118 13.5923C11.3518 13.5923 10.1977 13.5923 9.04352 13.5923Z" fill="#8ECFD2"/>
<path d="M9.05503 16.4045C7.90089 16.4045 6.74675 16.4045 5.5926 16.4045C5.2821 16.4045 5.04775 16.2697 4.91886 15.9885C4.79583 15.7249 4.8427 15.4729 5.03018 15.2445C5.17078 15.0804 5.3524 14.9984 5.56331 14.9984C7.90675 14.9984 10.2443 14.9925 12.5878 14.9984C12.992 14.9984 13.2908 15.3089 13.2908 15.6956C13.2908 16.0881 12.9862 16.3986 12.5702 16.3986C11.3985 16.4103 10.2268 16.4045 9.05503 16.4045Z" fill="#8ECFD2"/>
<path d="M9.06682 17.8105C10.221 17.8105 11.3751 17.8047 12.5292 17.8105C13.08 17.8105 13.4315 18.3026 13.2323 18.7772C13.1034 19.0818 12.8573 19.2166 12.5234 19.2166C11.3458 19.2166 10.1682 19.2166 8.99066 19.2166C7.85995 19.2166 6.72924 19.2224 5.59853 19.2166C5.0654 19.2166 4.71974 18.7362 4.90136 18.2616C5.01267 17.9746 5.27045 17.8105 5.62782 17.8105C6.77025 17.8105 7.91853 17.8105 9.06682 17.8105Z" fill="#8ECFD2"/>
<path d="M13.2731 23.5286C12.5994 23.5286 11.9315 23.5286 11.2578 23.5286C10.7832 23.5286 10.4669 23.2356 10.4727 22.8197C10.4786 22.4096 10.7891 22.1225 11.2461 22.1225C12.6053 22.1225 13.9586 22.1225 15.3178 22.1225C15.7748 22.1225 16.0911 22.4096 16.0911 22.8197C16.097 23.2356 15.7748 23.5286 15.3061 23.5286C14.6323 23.5286 13.9527 23.5286 13.2731 23.5286Z" fill="#8ECFD2"/>
</svg>
