<svg width="40" height="40" viewBox="0 0 40 40" fill="none" xmlns="http://www.w3.org/2000/svg">
<path fill-rule="evenodd" clip-rule="evenodd" d="M16.8282 7.6787C18.5534 6.17706 20.8935 5.3335 23.3335 5.3335H28.1335C28.7962 5.3335 29.3335 5.80109 29.3335 6.37789V11.948C29.3335 12.5248 28.7962 12.9924 28.1335 12.9924H23.3335C23.2274 12.9924 23.1256 13.0291 23.0507 13.0943C22.9756 13.1597 22.9335 13.2483 22.9335 13.3405V16.4737H28.1335C28.503 16.4737 28.8519 16.6219 29.0793 16.8754C29.3067 17.1289 29.3873 17.4594 29.2977 17.7714L27.6977 23.3416C27.5641 23.8065 27.0841 24.1326 26.5335 24.1326H22.9335V34.2285C22.9335 34.8053 22.3962 35.2729 21.7335 35.2729H15.3335C14.6708 35.2729 14.1335 34.8053 14.1335 34.2285V24.1326H10.5335C9.87075 24.1326 9.3335 23.6651 9.3335 23.0883V17.5181C9.3335 16.9413 9.87075 16.4737 10.5335 16.4737H14.1335V13.3405C14.1335 11.217 15.1027 9.18036 16.8281 7.67875C16.8281 7.67873 16.8282 7.67871 16.8282 7.6787ZM23.3335 7.42229C21.53 7.42229 19.8003 8.04582 18.5253 9.15568L18.5252 9.15573C17.2499 10.2656 16.5335 11.7709 16.5335 13.3405V17.5181C16.5335 18.0949 15.9962 18.5625 15.3335 18.5625H11.7335V22.0439H15.3335C15.9962 22.0439 16.5335 22.5114 16.5335 23.0883V33.1841H20.5335V23.0883C20.5335 22.5114 21.0707 22.0439 21.7335 22.0439H25.5966L26.5966 18.5625H21.7335C21.0707 18.5625 20.5335 18.0949 20.5335 17.5181V13.3405C20.5335 12.6941 20.8286 12.0744 21.3535 11.6174L21.3535 11.6174C21.8787 11.1603 22.591 10.9036 23.3335 10.9036H26.9335V7.42229H23.3335Z" fill="white"/>
</svg>
