<svg width="40" height="40" viewBox="0 0 40 40" fill="none" xmlns="http://www.w3.org/2000/svg">
<path fill-rule="evenodd" clip-rule="evenodd" d="M13.7798 20.5376C13.7798 16.8054 16.8054 13.7798 20.5376 13.7798C24.2698 13.7798 27.2954 16.8054 27.2954 20.5376C27.2954 24.2698 24.2698 27.2954 20.5376 27.2954C16.8054 27.2954 13.7798 24.2698 13.7798 20.5376ZM20.5376 15.9138C17.984 15.9138 15.9138 17.984 15.9138 20.5376C15.9138 23.0912 17.984 25.1614 20.5376 25.1614C23.0912 25.1614 25.1614 23.0912 25.1614 20.5376C25.1614 17.984 23.0912 15.9138 20.5376 15.9138Z" fill="white"/>
<path fill-rule="evenodd" clip-rule="evenodd" d="M14.847 8.80055C11.5077 8.80055 8.80055 11.5077 8.80055 14.847V26.2286C8.80055 29.568 11.5077 32.2751 14.847 32.2751H26.2286C29.568 32.2751 32.2751 29.568 32.2751 26.2286V14.847C32.2751 11.5077 29.568 8.80055 26.2286 8.80055H14.847ZM6.6665 14.847C6.6665 10.3291 10.3291 6.6665 14.847 6.6665H26.2286C30.7466 6.6665 34.4092 10.3291 34.4092 14.847V26.2286C34.4092 30.7466 30.7466 34.4092 26.2286 34.4092H14.847C10.3291 34.4092 6.6665 30.7466 6.6665 26.2286V14.847Z" fill="white"/>
<path fill-rule="evenodd" clip-rule="evenodd" d="M29.0896 11.9185C29.5276 12.3127 29.5631 12.9874 29.1689 13.4254L29.1555 13.4402C28.7613 13.8782 28.0866 13.9137 27.6486 13.5195C27.2106 13.1252 27.1751 12.4505 27.5694 12.0125L27.5827 11.9977C27.9769 11.5597 28.6516 11.5242 29.0896 11.9185Z" fill="white"/>
</svg>
