<svg width="40" height="40" viewBox="0 0 40 40" fill="none" xmlns="http://www.w3.org/2000/svg">
<path fill-rule="evenodd" clip-rule="evenodd" d="M19.9493 10.2255C18.2118 10.2255 16.1759 10.2658 14.1762 10.3224C12.0296 10.3831 10.5328 10.4278 9.39954 10.6152C8.30265 10.7966 7.6982 11.0902 7.25405 11.5471C6.81231 12.0015 6.53444 12.6193 6.38345 13.7402C6.22785 14.8953 6.22549 16.4179 6.22549 18.597V20.6965C6.22549 22.8756 6.22785 24.3982 6.38345 25.5533C6.53444 26.6742 6.81231 27.2919 7.25401 27.7463C7.69816 28.2032 8.30263 28.4968 9.39949 28.6782C10.5327 28.8656 12.0295 28.9104 14.1761 28.9712C16.1759 29.0277 18.2118 29.0681 19.9493 29.0681C21.6868 29.0681 23.7227 29.0277 25.7225 28.9712C27.8691 28.9104 29.3659 28.8656 30.4991 28.6782C31.5959 28.4968 32.2004 28.2032 32.6445 27.7463C33.0862 27.292 33.3642 26.6742 33.5151 25.5533C33.6708 24.3982 33.6731 22.8756 33.6731 20.6965V18.597C33.6731 16.4179 33.6708 14.8953 33.5151 13.7402C33.3642 12.6193 33.0863 12.0015 32.6445 11.5471C32.2004 11.0902 31.5959 10.7966 30.499 10.6152C29.3658 10.4278 27.8689 10.3831 25.7224 10.3224C23.7227 10.2658 21.6868 10.2255 19.9493 10.2255ZM14.1133 8.09776C16.1226 8.04093 18.1819 8 19.9493 8C21.7168 8 23.7761 8.04093 25.7853 8.09776L25.8669 8.10007C27.9126 8.15789 29.5617 8.20451 30.8621 8.41957C32.2162 8.64349 33.341 9.07078 34.2403 9.99587C35.142 10.9234 35.5358 12.0706 35.7207 13.4431C35.8987 14.7641 35.8986 16.437 35.8986 18.5159V20.7777C35.8986 22.8565 35.8987 24.5294 35.7207 25.8504C35.5358 27.2229 35.142 28.3701 34.2403 29.2976C33.341 30.2227 32.2162 30.65 30.8622 30.8739C29.5619 31.0889 27.913 31.1356 25.8676 31.1934L25.7854 31.1958C23.7761 31.2526 21.7168 31.2935 19.9493 31.2935C18.1818 31.2935 16.1225 31.2526 14.1132 31.1958L14.0309 31.1934C11.9856 31.1356 10.3366 31.0889 9.03637 30.8739C7.68238 30.65 6.5576 30.2227 5.65831 29.2976C4.7566 28.37 4.36276 27.2228 4.17789 25.8504C3.99995 24.5294 3.99997 22.8566 4 20.7777V18.5158C3.99997 16.4369 3.99995 14.7641 4.17789 13.4431C4.36276 12.0706 4.75661 10.9234 5.6583 9.99588C6.55761 9.07078 7.68241 8.64349 9.03644 8.41957C10.3369 8.20451 11.986 8.15789 14.0317 8.10007L14.1133 8.09776Z" fill="white"/>
<path fill-rule="evenodd" clip-rule="evenodd" d="M17.1651 15.7167C17.5081 15.5176 17.9313 15.5162 18.2757 15.713L23.4685 18.6803C23.8152 18.8784 24.0291 19.2471 24.0291 19.6465C24.0291 20.0458 23.8152 20.4145 23.4685 20.6126L18.2757 23.5799C17.9313 23.7767 17.5081 23.7753 17.1651 23.5762C16.822 23.3771 16.6108 23.0104 16.6108 22.6138V16.6791C16.6108 16.2825 16.822 15.9158 17.1651 15.7167ZM18.8363 18.5966V20.6963L20.6736 19.6465L18.8363 18.5966Z" fill="white"/>
</svg>
