<svg width="23" height="20" viewBox="0 0 23 20" fill="none" xmlns="http://www.w3.org/2000/svg">
<path fill-rule="evenodd" clip-rule="evenodd" d="M10.6904 0.125693C10.9647 -0.0418976 11.3097 -0.0418976 11.5839 0.125693L21.8642 6.40813C22.268 6.65485 22.3952 7.18213 22.1485 7.58585C21.9018 7.98958 21.3745 8.11685 20.9708 7.87013L11.1372 1.8607L1.30354 7.87013C0.899821 8.11685 0.372534 7.98958 0.125816 7.58585C-0.120903 7.18213 0.00637282 6.65485 0.410094 6.40813L10.6904 0.125693Z" fill="white"/>
<path fill-rule="evenodd" clip-rule="evenodd" d="M3.14185 10.2803C3.61499 10.2803 3.99855 10.6638 3.99855 11.137V18.2761H18.2768V11.137C18.2768 10.6638 18.6604 10.2803 19.1335 10.2803C19.6066 10.2803 19.9902 10.6638 19.9902 11.137V18.4474C19.9902 19.2991 19.2998 19.9895 18.4481 19.9895H3.82721C2.97558 19.9895 2.28516 19.2991 2.28516 18.4474V11.137C2.28516 10.6638 2.66871 10.2803 3.14185 10.2803Z" fill="white"/>
</svg>
